HIERARCHY
ROOT Hips
{
	OFFSET -0.001795 -0.223333 0.028219
	CHANNELS 6 Xposition Yposition Zposition Zrotation Yrotation Xrotation 
	JOINT LeftUpLeg
	{
		OFFSET 0.069520 -0.091406 -0.006815
		CHANNELS 3 Zrotation Yrotation Xrotation
		JOINT LeftLeg
		{
			OFFSET 0.034277 -0.375199 -0.004496
			CHANNELS 3 Zrotation Yrotation Xrotation
			JOINT LeftFoot
			{
				OFFSET -0.013596 -0.397961 -0.043693
				CHANNELS 3 Zrotation Yrotation Xrotation
				JOINT LeftToe
				{
					OFFSET 0.026358 -0.055791 0.119288
					CHANNELS 3 Zrotation Yrotation Xrotation
					End Site
					{
						OFFSET 0.000000 0.000000 0.000000
					}
				}
			}
		}
	}
	JOINT RightUpLeg
	{
		OFFSET -0.067670 -0.090522 -0.004320
		CHANNELS 3 Zrotation Yrotation Xrotation
		JOINT RightLeg
		{
			OFFSET -0.038290 -0.382569 -0.008850
			CHANNELS 3 Zrotation Yrotation Xrotation
			JOINT RightFoot
			{
				OFFSET 0.015774 -0.398415 -0.042312
				CHANNELS 3 Zrotation Yrotation Xrotation
				JOINT RightToe
				{
					OFFSET -0.025372 -0.048144 0.123348
					CHANNELS 3 Zrotation Yrotation Xrotation
					End Site
					{
						OFFSET 0.000000 0.000000 0.000000
					}
				}
			}
		}
	}
	JOINT Spine
	{
		OFFSET -0.002533 0.108963 -0.026696
		CHANNELS 3 Zrotation Yrotation Xrotation
		JOINT Spine1
		{
			OFFSET 0.005487 0.135180 0.001092
			CHANNELS 3 Zrotation Yrotation Xrotation
			JOINT Spine2
			{
				OFFSET 0.001457 0.052922 0.025425
				CHANNELS 3 Zrotation Yrotation Xrotation
				JOINT Neck
				{
					OFFSET -0.002778 0.213870 -0.042857
					CHANNELS 3 Zrotation Yrotation Xrotation
					JOINT Head
					{
						OFFSET 0.005152 0.064970 0.051349
						CHANNELS 3 Zrotation Yrotation Xrotation
						End Site
						{
							OFFSET 0.000000 0.000000 0.000000
						}
					}
				}
				JOINT LeftShoulder
				{
					OFFSET 0.078845 0.121749 -0.034090
					CHANNELS 3 Zrotation Yrotation Xrotation
					JOINT LeftArm
					{
						OFFSET 0.090977 0.030469 -0.008868
						CHANNELS 3 Zrotation Yrotation Xrotation
						JOINT LeftForeArm
						{
							OFFSET 0.259612 -0.012772 -0.027456
							CHANNELS 3 Zrotation Yrotation Xrotation
							JOINT LeftHand
							{
								OFFSET 0.249234 0.008986 -0.001171
								CHANNELS 3 Zrotation Yrotation Xrotation
								End Site
								{
									OFFSET 0.000000 0.000000 0.000000
								}
							}
						}
					}
				}
				JOINT RightShoulder
				{
					OFFSET -0.081759 0.118833 -0.038615
					CHANNELS 3 Zrotation Yrotation Xrotation
					JOINT RightArm
					{
						OFFSET -0.096012 0.032551 -0.009143
						CHANNELS 3 Zrotation Yrotation Xrotation
						JOINT RightForeArm
						{
							OFFSET -0.253742 -0.013329 -0.021401
							CHANNELS 3 Zrotation Yrotation Xrotation
							JOINT RightHand
							{
								OFFSET -0.255298 0.007772 -0.005559
								CHANNELS 3 Zrotation Yrotation Xrotation
								End Site
								{
									OFFSET 0.000000 0.000000 0.000000
								}
							}
						}
					}
				}
			}
		}
	}
}
MOTION
Frames: 17
Frame Time: 0.050000
-0.015855 0.890110 0.177488 -2.174125 -0.676920 2.199015 18.605694 1.275505 -21.121947 -9.456004 2.343694 24.080445 7.936041 16.718174 4.081310 0.000000 0.000000 0.000000 -8.306050 0.901748 -22.547346 9.448023 -2.068385 24.417713 -9.977185 -23.815632 4.725608 0.000000 0.000000 0.000000 -5.978577 0.680416 43.424154 6.042311 -1.080214 -21.105016 0.906955 1.878096 21.596144 -1.225730 3.214118 -48.410550 0.000000 0.000000 0.000000 -19.039444 -23.573800 11.202244 -16.328735 -52.242948 2.122624 57.786409 -36.148054 -18.239242 0.000000 0.000000 0.000000 6.092059 32.630874 13.139364 16.013885 51.921619 2.549329 -52.287997 32.653776 -13.654791 0.000000 0.000000 0.000000 
-0.016167 0.892814 0.178405 -2.182235 -0.743693 2.101155 18.345735 1.151222 -19.928587 -9.204986 2.178113 22.538123 8.018317 16.880489 4.346654 0.000000 0.000000 0.000000 -8.100578 0.910537 -21.691392 8.983858 -1.875051 23.586998 -9.838069 -23.513179 4.928713 0.000000 0.000000 0.000000 -5.916014 0.652843 42.732059 6.273734 -1.168910 -20.810532 0.995171 1.982029 21.505201 -1.271627 3.221331 -47.761620 0.000000 0.000000 0.000000 -18.834888 -23.491776 11.099686 -16.250120 -52.279447 2.099633 57.401967 -36.489568 -18.296168 0.000000 0.000000 0.000000 5.947475 32.619790 13.091461 16.796508 52.577479 2.964503 -52.484617 33.971877 -14.339496 0.000000 0.000000 0.000000 
-0.016581 0.895117 0.178817 -2.224012 -0.686893 1.967197 18.288552 1.065271 -18.882840 -9.140355 2.087206 21.338036 7.839071 16.564114 4.452038 0.000000 0.000000 0.000000 -7.977844 0.899267 -20.933743 9.045707 -1.864978 22.746382 -9.964677 -23.722758 5.397389 0.000000 0.000000 0.000000 -5.862347 0.607753 42.105734 6.517860 -1.253551 -20.602672 1.168153 2.144482 21.438549 -1.257814 3.224800 -47.271470 0.000000 0.000000 0.000000 -18.649294 -23.299428 10.909871 -16.152257 -52.519130 2.088467 57.151529 -37.066439 -18.544205 0.000000 0.000000 0.000000 6.029261 32.481094 13.072240 18.004918 52.976200 3.543151 -53.581376 35.835971 -15.590026 0.000000 0.000000 0.000000 
-0.017085 0.897284 0.178615 -2.237571 -0.348872 1.701210 18.098286 0.963076 -18.141796 -8.915534 1.957807 20.697614 7.829544 16.592233 4.975198 0.000000 0.000000 0.000000 -7.678615 0.897439 -20.168672 8.941548 -1.833913 22.137347 -10.173475 -24.067233 5.982389 0.000000 0.000000 0.000000 -5.853811 0.539726 41.852499 6.875641 -1.350511 -20.562219 1.358307 2.281709 21.434755 -1.580243 3.347340 -46.681028 0.000000 0.000000 0.000000 -18.047552 -23.096760 10.624247 -16.079075 -52.870870 2.094301 57.000585 -37.406209 -18.723143 0.000000 0.000000 0.000000 6.090899 32.439297 13.092642 18.693564 53.295480 3.915018 -54.726343 37.021185 -16.569967 0.000000 0.000000 0.000000 
-0.017642 0.898950 0.177836 -2.210595 0.050783 1.402175 17.927935 0.881673 -17.635890 -8.765745 1.863213 20.283827 7.584916 16.183505 5.178443 0.000000 0.000000 0.000000 -7.500988 0.879297 -19.593838 8.914669 -1.845628 21.841069 -10.233895 -24.136803 6.274339 0.000000 0.000000 0.000000 -5.823902 0.454439 41.707720 6.886447 -1.342423 -20.660660 1.529403 2.171467 21.601853 -2.051503 3.508456 -46.568675 0.000000 0.000000 0.000000 -17.577469 -23.150671 10.558906 -15.321670 -53.101534 1.807985 57.418501 -37.362663 -18.913604 0.000000 0.000000 0.000000 6.061310 32.525302 13.108474 19.324585 53.259853 4.182822 -55.871733 37.473947 -17.220540 0.000000 0.000000 0.000000 
-0.018165 0.900996 0.176783 -2.189606 0.649442 1.143044 17.623307 0.776420 -17.272551 -8.514405 1.730024 19.906669 7.392926 15.901627 5.593275 0.000000 0.000000 0.000000 -7.195670 0.868078 -18.899343 8.768692 -1.824211 21.291820 -10.500923 -24.578629 6.773092 0.000000 0.000000 0.000000 -5.823159 0.348933 41.761637 6.879823 -1.331286 -20.717514 1.731568 2.098462 21.583164 -2.655992 3.724973 -45.993137 0.000000 0.000000 0.000000 -17.587910 -23.268046 10.566364 -14.335772 -53.062035 1.416183 57.912756 -37.181462 -19.082817 0.000000 0.000000 0.000000 6.326256 32.673630 13.262816 19.303036 52.853261 4.128497 -57.287578 37.302413 -17.646612 0.000000 0.000000 0.000000 
-0.018633 0.902219 0.175662 -2.180200 1.036644 0.748636 17.369561 0.694330 -16.734230 -8.377964 1.649548 19.600944 7.140794 15.466322 5.591929 0.000000 0.000000 0.000000 -7.011385 0.851999 -18.363188 8.839436 -1.876074 21.306494 -10.553629 -24.675105 6.620707 0.000000 0.000000 0.000000 -5.850698 0.290290 41.887436 6.904778 -1.358051 -20.455238 1.854308 2.301650 21.481779 -2.809901 3.816661 -45.523932 0.000000 0.000000 0.000000 -17.806902 -23.450741 10.588675 -13.489778 -52.918986 1.081610 58.879457 -37.073153 -19.514292 0.000000 0.000000 0.000000 6.529177 32.798428 13.407108 18.606638 52.207440 3.783456 -58.326471 36.408130 -17.532957 0.000000 0.000000 0.000000 
-0.019063 0.903061 0.174655 -2.154789 1.668751 0.443673 17.051756 0.589596 -16.238623 -8.134933 1.521725 19.140604 7.023536 15.295162 5.723301 0.000000 0.000000 0.000000 -6.795566 0.832760 -17.834903 8.894979 -1.926107 20.966848 -10.768572 -25.033365 6.882155 0.000000 0.000000 0.000000 -5.702542 0.118637 42.162910 6.684530 -1.276437 -20.644478 2.051554 2.319743 21.768482 -3.175833 3.975648 -45.552482 0.000000 0.000000 0.000000 -17.943857 -23.776228 10.700017 -12.577750 -53.110058 0.720955 59.797333 -36.508436 -19.644999 0.000000 0.000000 0.000000 6.611800 32.909187 13.498142 18.124222 51.787479 3.542103 -58.799700 35.015146 -16.918357 0.000000 0.000000 0.000000 
-0.019379 0.903009 0.173782 -2.158495 2.184604 0.357411 16.886780 0.535814 -16.266295 -7.879246 1.412474 18.950247 6.809219 14.949420 5.801345 0.000000 0.000000 0.000000 -6.668765 0.823152 -17.666156 9.034778 -2.009128 20.946208 -10.950855 -25.423515 6.484553 0.000000 0.000000 0.000000 -5.609485 -0.007650 42.307941 6.580272 -1.245732 -20.545038 2.005072 2.392736 21.616408 -3.254768 4.033992 -45.554478 0.000000 0.000000 0.000000 -18.605876 -23.679488 10.663959 -12.379852 -53.339621 0.668166 60.751953 -36.445745 -20.034108 0.000000 0.000000 0.000000 7.114105 32.985767 13.730891 18.089449 51.536737 3.512870 -58.534163 33.631590 -16.023890 0.000000 0.000000 0.000000 
-0.019602 0.902948 0.173025 -2.140644 2.789458 0.257613 16.833909 0.476988 -16.030609 -7.700031 1.315519 18.523716 6.616381 14.672531 6.057328 0.000000 0.000000 0.000000 -6.498351 0.812930 -17.389607 9.069643 -2.064133 20.878121 -11.046434 -25.604908 6.414213 0.000000 0.000000 0.000000 -5.361076 -0.213995 42.407825 6.410875 -1.182147 -20.660827 2.039925 2.351119 21.839959 -3.557166 4.165139 -45.202741 0.000000 0.000000 0.000000 -19.246738 -23.923952 10.828572 -11.908955 -53.695622 0.490109 61.533567 -36.371102 -20.342381 0.000000 0.000000 0.000000 7.637804 32.961453 13.911797 18.298052 51.428292 3.569713 -58.745437 32.770745 -15.582043 0.000000 0.000000 0.000000 
-0.019634 0.902924 0.172349 -2.168482 3.130302 0.277014 16.718509 0.445812 -16.197184 -7.410587 1.217983 18.543300 6.547359 14.592894 6.223262 0.000000 0.000000 0.000000 -6.335598 0.823518 -17.376546 9.037872 -2.083102 20.915946 -11.144988 -25.804987 6.328495 0.000000 0.000000 0.000000 -5.267129 -0.313844 42.579763 6.372697 -1.163134 -20.686955 1.988972 2.374775 21.829509 -3.602241 4.198233 -45.179126 0.000000 0.000000 0.000000 -19.570204 -23.850474 10.786620 -11.867885 -54.362173 0.506817 62.066918 -36.154678 -20.433986 0.000000 0.000000 0.000000 7.929561 32.942696 14.028788 18.935056 51.709514 3.872639 -58.968825 31.734612 -15.025361 0.000000 0.000000 0.000000 
-0.019522 0.903763 0.171711 -2.071190 3.349862 0.029756 16.454919 0.396860 -15.908549 -7.166931 1.134582 18.294448 6.281785 14.179993 6.483990 0.000000 0.000000 0.000000 -6.108788 0.828123 -16.983956 8.746803 -1.999376 20.722343 -11.071853 -25.675741 6.194469 0.000000 0.000000 0.000000 -5.314502 -0.334008 42.653548 6.378547 -1.167944 -20.611165 1.910403 2.312046 21.980868 -3.830072 4.287774 -44.865538 0.000000 0.000000 0.000000 -20.164996 -24.035196 10.962751 -11.629849 -54.573283 0.421539 62.273535 -36.021917 -20.453910 0.000000 0.000000 0.000000 8.577424 33.032511 14.262421 19.365771 51.695336 4.019950 -59.056829 31.299549 -14.807629 0.000000 0.000000 0.000000 
-0.019284 0.904841 0.171145 -1.981463 3.473988 0.089339 16.348875 0.370444 -15.814491 -7.093746 1.103719 17.994752 6.115035 13.958889 6.849290 0.000000 0.000000 0.000000 -5.980771 0.839899 -16.925815 8.531628 -1.924829 20.404286 -10.977600 -25.459686 6.397229 0.000000 0.000000 0.000000 -5.318058 -0.349618 42.579779 6.411569 -1.187609 -20.445310 1.921254 2.117917 21.896519 -4.281558 4.428394 -44.879290 0.000000 0.000000 0.000000 -20.047358 -23.884882 10.902390 -11.635200 -55.273524 0.456134 61.907187 -35.678591 -20.061623 0.000000 0.000000 0.000000 8.654617 33.118659 14.308957 19.937489 51.895508 4.276733 -58.827382 31.291728 -14.730709 0.000000 0.000000 0.000000 
-0.019041 0.906246 0.170717 -1.890969 3.406430 0.270357 16.109217 0.339979 -15.748532 -6.900664 1.052856 17.671166 6.014082 13.785439 6.862249 0.000000 0.000000 0.000000 -5.823141 0.861758 -16.814681 8.304218 -1.835458 20.123727 -10.745248 -25.030752 6.275105 0.000000 0.000000 0.000000 -5.332280 -0.315997 42.002213 6.487563 -1.204331 -20.486373 1.780281 2.057435 22.067359 -4.359036 4.448738 -44.740893 0.000000 0.000000 0.000000 -19.621172 -23.873389 10.859276 -11.741245 -55.674821 0.497761 61.719708 -35.454754 -19.825181 0.000000 0.000000 0.000000 8.850685 32.904802 14.275232 20.367734 51.728200 4.399861 -58.415871 31.662338 -14.795008 0.000000 0.000000 0.000000 
-0.018916 0.907301 0.170516 -1.808637 3.343074 0.301330 16.007776 0.320186 -15.451388 -6.879292 1.041663 17.081424 5.907366 13.626880 7.032290 0.000000 0.000000 0.000000 -5.717278 0.869197 -16.597526 8.098851 -1.763258 20.013735 -10.614239 -24.775898 6.285614 0.000000 0.000000 0.000000 -5.336941 -0.293690 41.556367 6.397633 -1.181712 -20.490776 1.779885 1.784260 22.147905 -4.433511 4.446366 -44.603690 0.000000 0.000000 0.000000 -19.648434 -23.776535 10.893869 -11.056532 -55.988171 0.208810 60.580181 -35.307006 -19.254079 0.000000 0.000000 0.000000 8.942381 32.626653 14.136840 20.538496 51.584295 4.406145 -57.109360 32.357024 -14.793721 0.000000 0.000000 0.000000 
-0.018934 0.908185 0.170592 -1.799029 3.193598 0.293208 16.000759 0.311459 -15.008691 -6.923360 1.054665 16.735794 5.791204 13.372781 6.776077 0.000000 0.000000 0.000000 -5.660990 0.868744 -16.301767 7.858840 -1.665156 19.684735 -10.194079 -23.970817 6.145071 0.000000 0.000000 0.000000 -5.325562 -0.263849 41.081367 6.560195 -1.237967 -20.390487 1.442615 1.775427 21.979988 -4.160545 4.352436 -43.946010 0.000000 0.000000 0.000000 -19.508933 -23.661425 10.816735 -10.417449 -55.859043 -0.065266 59.985355 -35.770297 -19.305050 0.000000 0.000000 0.000000 9.504152 32.490810 14.250151 20.261167 51.116248 4.203503 -55.881193 33.011547 -14.772497 0.000000 0.000000 0.000000 
-0.019092 0.908552 0.170973 -1.811635 3.135083 0.044892 16.091128 0.315953 -14.583656 -7.084854 1.093820 16.532092 5.879304 13.538751 6.893939 0.000000 0.000000 0.000000 -5.439692 0.880109 -15.964193 7.618802 -1.595156 19.783097 -10.046980 -23.707501 5.880306 0.000000 0.000000 0.000000 -5.335640 -0.248930 40.806421 6.562790 -1.222666 -20.638591 1.467812 1.627064 22.122633 -4.105525 4.319046 -43.897132 0.000000 0.000000 0.000000 -19.362721 -23.669162 10.839712 -9.567870 -55.776336 -0.436754 59.307856 -36.108167 -19.250358 0.000000 0.000000 0.000000 9.607434 32.286967 14.148461 19.741069 50.813176 3.925772 -54.546632 33.466378 -14.631608 0.000000 0.000000 0.000000 
